<?xml version="1.0" encoding="utf-8"?>
<!-- Generator: Adobe Illustrator 19.0.0, SVG Export Plug-In . SVG Version: 6.00 Build 0)  -->
<svg version="1.1" id="Cake" xmlns="http://www.w3.org/2000/svg" xmlns:xlink="http://www.w3.org/1999/xlink" x="0px" y="0px"
	 viewBox="-155 247 300 300" style="enable-background:new -155 247 300 300;" xml:space="preserve">
<style type="text/css">
	.xxst0{fill:#45992F;}
	.xxst1{fill:#FFFFFF;}
</style>
<circle id="Circle" class="xxst0" cx="-5" cy="397" r="150"/>
<polygon id="i" class="xxst1" points="20.5,348.5 10.5,348.5 10.5,445.5 20.5,445.5 "/>
<path id="o" class="xxst1" d="M-9.9,358.5v77.1H-87v-77.1H-9.9 M0.1,348.5H-97v97.1H0.1V348.5L0.1,348.5z"/>
<g id="Cake_1_">
	<path id="CA" class="xxst1" d="M49.9,445.6c-4,0-7.4-0.5-10.3-1.6c-2.9-1-5.2-2.6-6.8-4.5c-1.6-2-2.4-4.3-2.4-7
		c0-2.1,0.6-3.9,1.8-5.6c1.1-1.6,2.8-3,5-4s4.5-1.6,7.4-1.8v5.7c-2.2,0.3-4,1-5.2,2s-1.9,2.3-1.9,3.9c0,2.1,1.1,3.8,3.5,5.1
		c2.4,1.3,5.3,1.9,9.2,1.9c3.7,0,6.8-0.6,9.1-1.9c2.3-1.3,3.5-2.9,3.5-5.1c0-1.6-0.7-2.9-1.9-3.9c-1.2-1-2.9-1.7-5.2-2v-5.7
		c2.8,0.2,5.2,0.8,7.4,1.8s3.7,2.3,5,4c1.1,1.6,1.8,3.5,1.8,5.6c0,2.7-0.8,4.9-2.4,7c-1.6,2-3.9,3.4-6.8,4.5
		C57.2,445.1,53.7,445.6,49.9,445.6L49.9,445.6z M69.1,420.9l-38.5-9.7v-6.8l38.5-9.6v6.1l-8.4,2V413l8.4,2V420.9L69.1,420.9z
		 M54.1,411.5v-7L39.5,408L54.1,411.5z"/>
	<path id="K" class="xxst1" d="M69,387H58.9l-6.1-3.6l16.3-7.3v-6.5l-22.8,9.9l-16-9.3v6.6l17.4,10.1H30.4v5.4H69
		C69,392.3,69,387,69,387z"/>
	<path id="E" class="xxst1" d="M30.4,367.1v-18h7.2v12.2h8.7v-10H53v10h9v-12.7h7.2v18.5H30.4z"/>
</g>
</svg>
