<?xml version="1.0" encoding="utf-8"?>
<!-- Generator: Adobe Illustrator 19.0.0, SVG Export Plug-In . SVG Version: 6.00 Build 0)  -->
<svg version="1.1" id="Layer_1" xmlns="http://www.w3.org/2000/svg" xmlns:xlink="http://www.w3.org/1999/xlink" x="0px" y="0px"
	 viewBox="-155 247 300 300" style="enable-background:new -155 247 300 300;" xml:space="preserve">
<style type="text/css">
	.dotst0{fill:#45992F;}
	.dotst1{fill:#FFFFFF;}
</style>
<circle id="Circle" class="dotst0" cx="-5" cy="397" r="150"/>
<g id="DOT">
	<path id="T" class="dotst1" d="M30.5,379.2v-30.7h7.2v11.2h31.7v8.3H37.6v11.2L30.5,379.2L30.5,379.2z"/>
	<g id="O">
		<path class="dotst1" d="M49.8,387.7c4.2,0,8.4,0,10.4,1.1c1.7,0.9,2.1,4.5,2.1,7.4s-0.4,6.4-2.1,7.4c-1.9,1.1-6.2,1.1-10.4,1.1
			s-8.4,0-10.4-1.1c-1.7-0.9-2.1-4.5-2.1-7.4s0.4-6.4,2.1-7.4C41.4,387.7,45.7,387.7,49.8,387.7 M49.8,380.7
			c-10.7,0-19.4,0-19.4,15.4s8.7,15.4,19.4,15.4s19.4,0,19.4-15.4S60.6,380.7,49.8,380.7L49.8,380.7z"/>
	</g>
	<path id="D" class="dotst1" d="M30.4,445.3v-12.8c0-3.8,0.8-7.1,2.5-9.8c1.7-2.9,3.9-5.1,6.9-6.6c3-1.6,6.3-2.3,10.1-2.3
		s7.1,0.7,10.1,2.3c3,1.6,5.2,3.8,6.9,6.6c1.7,2.9,2.5,6.2,2.5,9.8v12.8C69.3,445.3,30.4,445.3,30.4,445.3z M62.3,432.5
		c0-3.3-1.1-5.9-3.4-7.8c-2.3-1.9-5.3-2.9-9-2.9c-3.8,0-6.8,1-9,2.9c-2.3,1.9-3.4,4.5-3.4,7.8v4.9h25L62.3,432.5L62.3,432.5z"/>
</g>
<path id="o" class="dotst1" d="M-9.9,358.5v77.1H-87v-77.1H-9.9 M0.1,348.5H-97v97.1H0.1V348.5L0.1,348.5z"/>
<polygon id="i" class="dotst1" points="20.5,348.5 10.5,348.5 10.5,445.5 20.5,445.5 "/>
</svg>
