<?xml version="1.0" encoding="utf-8"?>
<!-- Generator: Adobe Illustrator 19.0.0, SVG Export Plug-In . SVG Version: 6.00 Build 0)  -->
<svg version="1.1" id="Layer_1" xmlns="http://www.w3.org/2000/svg" xmlns:xlink="http://www.w3.org/1999/xlink" x="0px" y="0px"
	 viewBox="-155 247 300 300" style="enable-background:new -155 247 300 300;" xml:space="preserve">
<style type="text/css">
	.icpst0{fill:#45992F;}
	.icpst1{fill:#FFFFFF;}
</style>
<g id="Layer_1_1_">
	<g>
		<circle class="icpst0" cx="-5" cy="397" r="150"/>
		<g id="XMLID_2_">
			<path class="icpst1" d="M-9.9,358.5v77.1H-87v-77.1H-9.9 M0.1,348.5H-97v97.1H0.1V348.5L0.1,348.5z"/>
		</g>
		<g id="XMLID_1_">
			<polygon class="icpst1" points="20.5,348.5 10.5,348.5 10.5,445.5 20.5,445.5 			"/>
		</g>
	</g>
</g>
<polygon id="XMLID_7_" class="icpst1" points="30.4,445.5 30.4,437.6 68.9,437.6 68.9,445.5 30.4,445.5 "/>
<path id="XMLID_8_" class="st1" d="M49.5,425.6c-3.9,0-7.2-0.8-10.1-2.3s-5.1-3.8-6.6-6.7c-1.5-2.9-2.3-6.3-2.3-10.2
	c0-3.1,0.6-5.7,1.8-8.2c1.1-2.4,2.8-4.4,4.9-5.9s4.4-2.4,7.2-2.6v8.4c-2.1,0.5-3.9,1.5-5.1,3c-1.2,1.5-1.9,3.4-1.9,5.7
	c0,3.1,1.1,5.6,3.4,7.5s5.2,2.8,9,2.8c3.7,0,6.6-0.9,8.8-2.8c2.2-1.8,3.4-4.2,3.4-7.5c0-2.3-0.7-4.3-1.9-5.7s-2.9-2.5-5.1-3v-8.4
	c2.8,0.3,5.1,1.1,7.2,2.6s3.7,3.4,4.9,5.9c1.1,2.4,1.8,5.2,1.8,8.2c0,3.9-0.8,7.2-2.3,10.2c-1.5,2.9-3.8,5.1-6.6,6.7
	C56.7,424.8,53.3,425.6,49.5,425.6L49.5,425.6z"/>
<path class="icpst1" d="M30.5,363.5c0-2.8,0.5-5.2,1.6-7.4c1.1-2.1,2.6-3.8,4.5-4.9c2-1.2,4.2-1.7,6.8-1.7s4.9,0.6,6.8,1.7
	c1.9,1.2,3.4,2.8,4.5,4.9c1.1,2.1,1.6,4.6,1.6,7.4v7.5h13v8.3H30.4v-15.8H30.5z M49.4,370.9v-6.7c0-2-0.5-3.5-1.6-4.7
	c-1.1-1.1-2.5-1.7-4.3-1.7c-1.9,0-3.3,0.6-4.4,1.7c-1.1,1.1-1.6,2.7-1.6,4.7v6.7H49.4L49.4,370.9z"/>
</svg>
